<svg id="Layer_1" data-name="Layer 1" xmlns="http://www.w3.org/2000/svg" viewBox="0 0 104 99"><defs><style>.cls-1{fill:#fff;}</style></defs><path d="M2,49.26C1.57,22.33,24.2-.18,51.74,0,78.51.18,100.66,21.65,101,48.62a49.55,49.55,0,0,1-49.7,50.05C24.17,98.63,1.57,76.18,2,49.26ZM65.77,73.44c1.06-2.54,1-3-.68-4.81a20.57,20.57,0,0,1-1.81-2A2.09,2.09,0,0,1,62.86,65c1.06-2.62,2.18-5.22,3.41-7.77,2-4.17,1.82-4.64-2-5.46a1.47,1.47,0,0,1-1.35-1.66c0-1.93-.2-3.87-.06-5.78A5.27,5.27,0,0,1,64,41.72c.66-.83.75-1.35-.16-1.95a6.63,6.63,0,0,0-6.61-.3c-.93.39-1.27,1.42-.32,2a2.18,2.18,0,0,1,1,2.17c0,1.88,0,3.76.09,5.63,0,1.14-.27,1.52-1.55,1.56-5.62.17-11.24.41-16.84.82-3,.21-3.86,2.49-2.29,5.08,1,1.74,2.07,3.5,3,5.29,2.17,4,2.15,4-1,7.34a3.58,3.58,0,0,0,1.15,6,25.66,25.66,0,0,0,15,1.23,3.45,3.45,0,0,1,1.69,0c2.71.76,4.62-.06,5.88-2.6A1.73,1.73,0,0,1,65.77,73.44ZM56.09,38.65c-2.16-.38-2.71-1.85-3.28-3.22a2.71,2.71,0,0,0-3.29-1.81A1.86,1.86,0,0,1,48,33.17c-.51-.92-1.15-.68-1.91-.59-1.89.22-2.73,1.74-3.37,3.11-1.14,2.45.39,4.28,3.07,4.05.48,0,1.32.11,1.43.39a28.6,28.6,0,0,1,1.06,3.75c.36,1.52.6,3.08,1,4.57.07.22,1.05.38,1.5.23,1.1-.37,3.35-4.19,3.06-5.29a2.74,2.74,0,0,1,.9-2.86A16.87,16.87,0,0,0,56.09,38.65Zm-29.67-16c-1.57-1-3-1.1-3.59.48-.44,1.13-.23,2.51-.33,4.09a8.7,8.7,0,0,0-1.18-1.73c-.4-.33-1.4-.64-1.49-.51-.39.57-.88,1.39-.72,2a4.64,4.64,0,0,0,1.54,2A30,30,0,0,0,24.71,32c.48.28,1.39-.14,2.1-.25a8.82,8.82,0,0,0-.42-1.72c-.68-1.41-1.44-2.77-2.17-4.15l.36-.24c.45.36.88.74,1.35,1.06,1.26.89,2.24.47,2.28-1.06,0-1-.26-1.9-.33-2.86s0-1.65,0-2.48l.43-.07a11.57,11.57,0,0,1,.81,1.51c.59,1.6,1.1,3.24,1.73,4.83.16.4.67.66,1,1,.25-.37.77-.8.71-1.1a72.32,72.32,0,0,0-1.74-7.15c-.41-1.3-1.53-1.45-2.78-.85C26.34,19.27,26.31,20.74,26.42,22.66Zm25.7-5.44a29,29,0,0,0,.75-3.54c.05-.5-.39-1.47-.64-1.49-.58,0-1.58.28-1.7.67a12.17,12.17,0,0,0,.22,8.35c.32.78,1,1,1.61.11a10.28,10.28,0,0,1,.75-.83,9.73,9.73,0,0,0,.49,1.32A10.57,10.57,0,0,0,54.92,24c.27.29.94.21,1.43.31a3.61,3.61,0,0,0,0-1.31c-.34-.9-.85-1.74-1.26-2.61C54,18,54.36,16.81,56.65,15.48c.51-.29,1.1-.44,1.62-.71s1-.62,1.62-1C58.05,12.19,56.81,12.82,52.12,17.22Zm8,3.51c.54.85,1,1.55,1.45,2.29a12.58,12.58,0,0,1,.62,1.51,5,5,0,0,0,1.08-1.12c.36-.74.74-1.13,1.61-.78s1.09.78.73,1.62c-.17.39-.41.94-.26,1.22.28.53.87,1.32,1.24,1.27a5.2,5.2,0,0,0,3.91-2.47l-2.94,1-.4-.47c1.14-1.77,2.32-3.52,3.42-5.31.28-.45.61-1.17.43-1.49a1.68,1.68,0,0,0-1.45-.68,17.41,17.41,0,0,0-4.78,1.56c-1.39.82-2.47,2.15-4.34,1.65C60.35,20.46,60.2,20.66,60.12,20.73Zm-14.64.68-.44,0a7.74,7.74,0,0,1-.43-1.6c-.06-1.56,0-3.11-.08-4.67,0-.53-.21-1.44-.48-1.5a2.29,2.29,0,0,0-1.88.34,14.15,14.15,0,0,0-2.65,3.77c-.67,1.61-.88,3.4-2.8,4.13-.07,0,0,.28-.06.37.88.3,1.73.53,2.53.89a9.77,9.77,0,0,1,1.45.95,8.32,8.32,0,0,1,.17-1.59,2.61,2.61,0,0,1,.79-1.4c.73-.45,1.31-.08,1.58.76a2.68,2.68,0,0,0,.6,1.28,1.67,1.67,0,0,0,1.36.35c1-.39,2-3,1.76-4.53Zm31.14,6.22c-1.14,1.08-2.23,2-3.19,3.07-.23.24-.06.85-.08,1.28.39,0,1,.18,1.14,0,2.23-2.29,5-3.62,7.88-4.9.3-.14.44-.63.66-.95-.4-.22-.81-.66-1.19-.62-1.06.1-2.09.41-3.15.6-.68.11-1.37.15-2.06.23l-.23-.52c.64-.68,1.25-1.39,1.94-2s1.49-.91.73-1.9a1.88,1.88,0,0,0-2.72-.47A3.51,3.51,0,0,0,76.62,27.63ZM57.4,81.36a23.31,23.31,0,0,0-.23,3.5,3.79,3.79,0,0,0,1,1.84c.1.13,1.05-.13,1.2-.43a7,7,0,0,0,.51-2.07c.1-.55,0-1.2.2-1.65a2,2,0,0,0-.25-2.64,2.68,2.68,0,0,0-3.54-.37A5.15,5.15,0,0,0,54.93,82c-.07.19.65.66,1,1,.14-.35.44-.72.41-1.06a1.54,1.54,0,0,1,1.56-1.83c.41,0,.87.6,1.26,1,.08.07-.07.37-.12.64Zm14.33,2.47a28.43,28.43,0,0,0,2.07-3c.23-.45,0-1.13,0-1.7a10.26,10.26,0,0,0-1.76.42c-.46.2-.92.94-1.23.86-1.5-.37-1.49.81-1.63,1.57a9.52,9.52,0,0,0,0,2.87,5.35,5.35,0,0,0,.74,1.47l.3-.16.14-2.32c1.48,1,1,3.37,3.37,3.38ZM48.08,85.9c.91-.78,1.61-1.46,2.39-2a3,3,0,0,0,1.08-3.4,2.65,2.65,0,0,0-3.48-1c-1.29.67-2.13,2.52-1.62,3.65.09.2.38.3.54.48a4.43,4.43,0,0,1,.82,1A5.88,5.88,0,0,1,48.08,85.9Zm19-6.16c-2.8.48-2.83,3.5-4.85,4.48l1.55,2.11.77-1.77,1.89,2.1,1.35-2.19-.26-.19-1.36.82Zm-33,5.74.76,0A9.72,9.72,0,0,1,35,84.13c.13-.54.34-1.06.52-1.58A16.44,16.44,0,0,1,36,84.2c.13.65.17,1.32.25,2l.37,0,1.07-4.73L36.2,78.91l-.77,2.69-1.36-2.42-.69.23Zm9-5.33a9.56,9.56,0,0,1,.4,2.91c-.19.88-.86,2.36-1.31,2.35-1.33,0-1.33-1.41-1.16-2.34a21.38,21.38,0,0,1,1.24-3.55c-1.13-.29-1.93-.13-2.11,1a15,15,0,0,0,0,4.68,1.53,1.53,0,0,0,2.26,1.11,5.05,5.05,0,0,0,2-2.49A3.17,3.17,0,0,0,43.1,80.15Zm-14.42,6.2a5.73,5.73,0,0,1,1-4.65c.17-.26.62-.32.94-.47l1.08-.5c-.38-.38-.72-1-1.14-1.07a2.37,2.37,0,0,0-2.61,1.71,12.35,12.35,0,0,0-.67,3c-.11,1,0,2.31,1.26,2.41s2-.8,2.58-2.41ZM54.44,46.46l.59.22,1-2.54C54.56,44.5,54.21,45.34,54.44,46.46Z"/><path class="cls-1" d="M65.77,73.44a1.73,1.73,0,0,0-2.71.58c-1.26,2.54-3.17,3.36-5.88,2.6a3.45,3.45,0,0,0-1.69,0,25.66,25.66,0,0,1-15-1.23,3.58,3.58,0,0,1-1.15-6c3.17-3.3,3.19-3.31,1-7.34-1-1.79-2-3.55-3-5.29-1.57-2.59-.66-4.87,2.29-5.08,5.6-.41,11.22-.65,16.84-.82,1.28,0,1.59-.42,1.55-1.56-.08-1.87-.07-3.75-.09-5.63a2.18,2.18,0,0,0-1-2.17c-1-.62-.61-1.65.32-2a6.63,6.63,0,0,1,6.61.3c.91.6.82,1.12.16,1.95a5.27,5.27,0,0,0-1.18,2.64c-.14,1.91.06,3.85.06,5.78a1.47,1.47,0,0,0,1.35,1.66c3.84.82,4,1.29,2,5.46C65,59.81,63.92,62.41,62.86,65a2.09,2.09,0,0,0,.42,1.55,20.57,20.57,0,0,0,1.81,2C66.77,70.47,66.83,70.9,65.77,73.44Z"/><path class="cls-1" d="M56.09,38.65a16.87,16.87,0,0,1-1.34,1.88,2.74,2.74,0,0,0-.9,2.86c.29,1.1-2,4.92-3.06,5.29-.45.15-1.43,0-1.5-.23-.44-1.49-.68-3.05-1-4.57a28.6,28.6,0,0,0-1.06-3.75c-.11-.28-.95-.43-1.43-.39-2.68.23-4.21-1.6-3.07-4.05.64-1.37,1.48-2.89,3.37-3.11.76-.09,1.4-.33,1.91.59a1.86,1.86,0,0,0,1.55.45,2.71,2.71,0,0,1,3.29,1.81C53.38,36.8,53.93,38.27,56.09,38.65Z"/><path class="cls-1" d="M26.42,22.66c-.11-1.92-.08-3.39,1.62-4.19,1.25-.6,2.37-.45,2.78.85a72.32,72.32,0,0,1,1.74,7.15c.06.3-.46.73-.71,1.1-.34-.31-.85-.57-1-1-.63-1.59-1.14-3.23-1.73-4.83a11.57,11.57,0,0,0-.81-1.51l-.43.07c0,.83-.05,1.66,0,2.48s.35,1.91.33,2.86c0,1.53-1,1.95-2.28,1.06-.47-.32-.9-.7-1.35-1.06l-.36.24c.73,1.38,1.49,2.74,2.17,4.15a8.82,8.82,0,0,1,.42,1.72c-.71.11-1.62.53-2.1.25A30,30,0,0,1,20.65,29a4.64,4.64,0,0,1-1.54-2c-.16-.57.33-1.39.72-2,.09-.13,1.09.18,1.49.51a8.7,8.7,0,0,1,1.18,1.73c.1-1.58-.11-3,.33-4.09C23.45,21.56,24.85,21.63,26.42,22.66Z"/><path class="cls-1" d="M52.12,17.22c4.69-4.4,5.93-5,7.77-3.42-.58.35-1.08.69-1.62,1s-1.11.42-1.62.71C54.36,16.81,54,18,55.1,20.37c.41.87.92,1.71,1.26,2.61a3.61,3.61,0,0,1,0,1.31c-.49-.1-1.16,0-1.43-.31a10.57,10.57,0,0,1-1.32-2.17,9.73,9.73,0,0,1-.49-1.32,10.28,10.28,0,0,0-.75.83c-.61.85-1.29.67-1.61-.11a12.17,12.17,0,0,1-.22-8.35c.12-.39,1.12-.69,1.7-.67.25,0,.69,1,.64,1.49A29,29,0,0,1,52.12,17.22Z"/><path class="cls-1" d="M60.12,20.73c.08-.07.23-.27.32-.24,1.87.5,3-.83,4.34-1.65a17.41,17.41,0,0,1,4.78-1.56A1.68,1.68,0,0,1,71,18c.18.32-.15,1-.43,1.49-1.1,1.79-2.28,3.54-3.42,5.31l.4.47,2.94-1a5.2,5.2,0,0,1-3.91,2.47c-.37.05-1-.74-1.24-1.27-.15-.28.09-.83.26-1.22.36-.84,0-1.3-.73-1.62s-1.25,0-1.61.78a5,5,0,0,1-1.08,1.12A12.58,12.58,0,0,0,61.57,23C61.15,22.28,60.66,21.58,60.12,20.73Zm8-1.24-.32-.4a19.8,19.8,0,0,0-2.05,1.31c-.23.18-.22.66-.33,1,.47,0,1.11.2,1.36,0A10.37,10.37,0,0,0,68.11,19.49Z"/><path class="cls-1" d="M45.48,21.41,46.9,19c.25,1.56-.75,4.14-1.76,4.53a1.67,1.67,0,0,1-1.36-.35,2.68,2.68,0,0,1-.6-1.28c-.27-.84-.85-1.21-1.58-.76a2.61,2.61,0,0,0-.79,1.4,8.32,8.32,0,0,0-.17,1.59,9.77,9.77,0,0,0-1.45-.95c-.8-.36-1.65-.59-2.53-.89,0-.09,0-.34.06-.37,1.92-.73,2.13-2.52,2.8-4.13A14.15,14.15,0,0,1,42.17,14a2.29,2.29,0,0,1,1.88-.34c.27.06.46,1,.48,1.5.08,1.56,0,3.11.08,4.67a7.74,7.74,0,0,0,.43,1.6Zm-3.43-5.12-1.37,3.53C42.77,19.38,43,18.92,42.05,16.29Z"/><path class="cls-1" d="M76.62,27.63a3.51,3.51,0,0,1-.27-6.21,1.88,1.88,0,0,1,2.72.47c.76,1-.14,1.37-.73,1.9s-1.3,1.34-1.94,2l.23.52c.69-.08,1.38-.12,2.06-.23,1.06-.19,2.09-.5,3.15-.6.38,0,.79.4,1.19.62-.22.32-.36.81-.66.95-2.84,1.28-5.65,2.61-7.88,4.9-.19.19-.75,0-1.14,0,0-.43-.15-1,.08-1.28C74.39,29.65,75.48,28.71,76.62,27.63Z"/><path class="cls-1" d="M57.4,81.36l1.65.39c.05-.27.2-.57.12-.64-.39-.38-.85-1-1.26-1A1.54,1.54,0,0,0,56.35,82c0,.34-.27.71-.41,1.06-.36-.34-1.08-.81-1-1a5.15,5.15,0,0,1,1.35-2.48,2.68,2.68,0,0,1,3.54.37,2,2,0,0,1,.25,2.64c-.24.45-.1,1.1-.2,1.65a7,7,0,0,1-.51,2.07c-.15.3-1.1.56-1.2.43a3.79,3.79,0,0,1-1-1.84A23.31,23.31,0,0,1,57.4,81.36Z"/><path class="cls-1" d="M71.73,83.83l2,3.4c-2.36,0-1.89-2.43-3.37-3.38l-.14,2.32-.3.16a5.35,5.35,0,0,1-.74-1.47,9.52,9.52,0,0,1,0-2.87c.14-.76.13-1.94,1.63-1.57.31.08.77-.66,1.23-.86a10.26,10.26,0,0,1,1.76-.42c0,.57.24,1.25,0,1.7A28.43,28.43,0,0,1,71.73,83.83Zm1.35-3.4-.72-.53-1.79,2.53.66.47Z"/><path class="cls-1" d="M48.08,85.9a5.88,5.88,0,0,0-.27-1.31,4.43,4.43,0,0,0-.82-1c-.16-.18-.45-.28-.54-.48-.51-1.13.33-3,1.62-3.65a2.65,2.65,0,0,1,3.48,1,3,3,0,0,1-1.08,3.4C49.69,84.44,49,85.12,48.08,85.9Zm1.19-2.8c1.12-.46,1.67-1.22,1.33-2.24s-1.13-1.07-1.94-.74Z"/><path class="cls-1" d="M67.09,79.74l-.91,5.36,1.36-.82.26.19-1.35,2.19-1.89-2.1-.77,1.77-1.55-2.11C64.26,83.24,64.29,80.22,67.09,79.74Z"/><path class="cls-1" d="M34.08,85.48l-.7-6.07.69-.23,1.36,2.42.77-2.69,1.52,2.51-1.07,4.73-.37,0c-.08-.66-.12-1.33-.25-2a16.44,16.44,0,0,0-.5-1.65c-.18.52-.39,1-.52,1.58a9.72,9.72,0,0,0-.17,1.32Z"/><path class="cls-1" d="M43.1,80.15a3.17,3.17,0,0,1,1.33,3.63,5.05,5.05,0,0,1-2,2.49,1.53,1.53,0,0,1-2.26-1.11,15,15,0,0,1,0-4.68c.18-1.09,1-1.25,2.11-1A21.38,21.38,0,0,0,41,83.07c-.17.93-.17,2.34,1.16,2.34.45,0,1.12-1.47,1.31-2.35A9.56,9.56,0,0,0,43.1,80.15Z"/><path class="cls-1" d="M28.68,86.35l2.4-2c-.55,1.61-1.4,2.51-2.58,2.41s-1.37-1.37-1.26-2.41a12.35,12.35,0,0,1,.67-3,2.37,2.37,0,0,1,2.61-1.71c.42.06.76.69,1.14,1.07l-1.08.5c-.32.15-.77.21-.94.47A5.73,5.73,0,0,0,28.68,86.35Z"/><path class="cls-1" d="M54.44,46.46c-.23-1.12.12-2,1.58-2.32l-1,2.54Z"/><path d="M68.11,19.49a10.37,10.37,0,0,1-1.34,1.89c-.25.23-.89,0-1.36,0,.11-.35.1-.83.33-1a19.8,19.8,0,0,1,2.05-1.31Z"/><path d="M42.05,16.29c.9,2.63.72,3.09-1.37,3.53Z"/><path d="M73.08,80.43,71.23,82.9l-.66-.47,1.79-2.53Z"/><path d="M49.27,83.1l-.61-3c.81-.33,1.63-.21,1.94.74S50.39,82.64,49.27,83.1Z"/></svg>